# xmcd CD database file
#
# Track frame offsets:
#	150
#	28216
#	47195
#	61431
#	75705
#	92275
#	106926
#	122322
#	137417
#	152204
#	177219
#	203566
#	228397
#	254003
#	270419
#	299798
#	316034
#	337800
#
# Disc length: 4746 seconds
#
# Revision: 9
# Processed by: cddbd v1.5.2PL0 Copyright (c) Steve Scherf et al.
# Submitted via: CDex 1.51
#
DISCID=f2128812
DTITLE=Future Trance - Volume 08 - CD 2
DYEAR=1999
DGENRE=Trance
TTITLE0=Junkfood Junkies - Free Your Mind [Original]
TTITLE1=Soniq Experience - Feelings [Club Mix]
TTITLE2=Kay Cee - Sunshine (Take U There) [Video Cut]
TTITLE3=Central Seven - Missing [DJ Mellow-D Radio Cut No.1]
TTITLE4=Brooklyn Bounce - Canda! [Radio Edit]
TTITLE5=Southside Spinners - Luvstruck [Remix Single Edit]
TTITLE6=Veracocha - Carte Blanche [FM Version]
TTITLE7=Future Breeze - Cruel World [Time Square Radiomix]
TTITLE8=Futura - Goodbye [Radio Mix]
TTITLE9=Minimalism - For My Love [Tandu-Remix]
TTITLE10=Legend B - Sexuality [Practice Mix]
TTITLE11=LLoerdy - Event Horizon [Westcoast Mix]
TTITLE12=Escape - Control [Sean Dexter Remix]
TTITLE13=Shahin and Simon - The Rebel [Radio Mix]
TTITLE14=Rayo Verde feat. Panterra - Donde Va? Viva [Con Ritmo Mix]
TTITLE15=Sir Round - The Imperial March [The Empire Mix Short]
TTITLE16=Blade Attack - Come With Me [Junk Project Mix]
TTITLE17=Art Of Trance - Madagascar [Cygnus X Remix]
EXTD=YEAR: 1999
EXTT0=
EXTT1=
EXTT2=
EXTT3=
EXTT4=
EXTT5=
EXTT6=
EXTT7=
EXTT8=
EXTT9=
EXTT10=
EXTT11=
EXTT12=
EXTT13=
EXTT14=
EXTT15=
EXTT16=
EXTT17=
PLAYORDER=
